<svg width="100" height="57" viewBox="0 0 100 57" xmlns="http://www.w3.org/2000/svg"><title>SoundCloud Logo</title><path d="M1.132 25.974c-.208 0-.374.16-.4.392L0 31.92l.73 5.46c.028.23.194.39.402.39.203 0 .367-.16.4-.39l.866-5.46-.867-5.556c-.03-.23-.196-.39-.398-.39zm4.113-3.035c-.034-.24-.205-.404-.416-.404-.213 0-.388.17-.417.403l-.983 8.98.983 8.782c.028.236.203.406.416.406.208 0 .38-.166.414-.404l1.118-8.784-1.117-8.98zm15.49-8.285c-.403 0-.736.33-.755.75l-.783 16.523.783 10.678c.02.417.352.746.756.746.4 0 .733-.33.757-.748v.003l.885-10.68-.885-16.522c-.024-.42-.356-.75-.757-.75zm-8.017 5.743c-.31 0-.562.247-.587.577l-.88 10.948.88 10.592c.025.328.278.576.588.576.307 0 .56-.247.586-.575l1.003-10.592-1.003-10.95c-.027-.328-.28-.575-.586-.575zM28.883 43.35c.5 0 .907-.402.927-.918l.768-10.5-.767-21.997c-.02-.516-.426-.92-.926-.92-.504 0-.912.405-.928.92l-.68 21.997.68 10.503c.016.512.424.916.927.916zm16.68.05c.69 0 1.256-.566 1.27-1.263v.007-.007l.535-10.197-.536-25.407c-.012-.695-.58-1.263-1.27-1.263-.688 0-1.257.566-1.268 1.264l-.478 25.397.478 10.213c.01.69.58 1.258 1.27 1.258zm-8.403-.04c.6 0 1.082-.48 1.098-1.093v.008l.652-10.34-.653-22.157c-.016-.613-.5-1.093-1.098-1.093-.605 0-1.088.48-1.1 1.093l-.58 22.158.58 10.337c.014.607.496 1.088 1.1 1.088zm-20.45-.096c.357 0 .645-.285.672-.66l.945-10.68-.945-10.16c-.025-.376-.314-.658-.67-.658-.362 0-.65.285-.673.662l-.832 10.155.83 10.68c.025.376.312.66.673.66zm-7.953-.585c.26 0 .47-.206.5-.49l1.062-10.27-1.06-10.654c-.032-.285-.242-.49-.503-.49-.263 0-.474.206-.5.49L7.322 31.92l.933 10.267c.026.285.237.492.5.492zM41.345 9.41c-.65 0-1.172.516-1.185 1.18l-.53 21.347.53 10.273c.013.654.534 1.17 1.185 1.17.65 0 1.168-.515 1.183-1.177v.008l.594-10.272-.594-21.35c-.015-.662-.533-1.18-1.183-1.18zm-16.55 33.963c.45 0 .82-.367.84-.835l.827-10.607-.826-20.3c-.022-.47-.392-.836-.842-.836-.454 0-.823.367-.843.835l-.73 20.3.732 10.612c.02.464.388.83.842.83zm9.222-1.002v-.004l.71-10.432-.71-22.74c-.017-.564-.462-1.007-1.012-1.007-.552 0-.998.442-1.013 1.008l-.63 22.738.63 10.437c.016.56.462 1.002 1.013 1.002.55 0 .994-.442 1.012-1.005v.004zM87.7 18.828c-1.684 0-3.292.34-4.757.955C81.965 8.696 72.67 0 61.33 0c-2.775 0-5.48.546-7.87 1.47-.927.36-1.174.73-1.183 1.447v39.038c.01.753.594 1.38 1.328 1.454.032.002 33.876.02 34.095.02 6.793 0 12.3-5.508 12.3-12.3 0-6.795-5.506-12.303-12.3-12.303zM49.764 2.882c-.74 0-1.346.607-1.356 1.352l-.555 27.71.556 10.055c.01.734.616 1.34 1.355 1.34.737 0 1.343-.606 1.354-1.352V42l.603-10.057-.603-27.71c-.01-.744-.617-1.35-1.354-1.35zM9.933 51.25c-1.455-.343-1.85-.526-1.85-1.102 0-.407.33-.827 1.312-.827.84 0 1.496.342 2.085.945l1.324-1.284c-.866-.903-1.914-1.44-3.342-1.44-1.81 0-3.28 1.022-3.28 2.687 0 1.81 1.182 2.347 2.872 2.74 1.73.392 2.046.656 2.046 1.246 0 .695-.513.997-1.6.997-.878 0-1.704-.3-2.347-1.05L5.83 55.34c.694 1.023 2.033 1.665 3.565 1.665 2.506 0 3.607-1.18 3.607-2.923 0-1.994-1.613-2.492-3.07-2.833zm8.446-3.71c-2.504 0-3.985 1.94-3.985 4.732 0 2.793 1.48 4.732 3.984 4.732 2.503 0 3.986-1.94 3.986-4.732 0-2.793-1.483-4.733-3.987-4.733zm0 7.643c-1.482 0-2.1-1.272-2.1-2.91 0-1.64.618-2.91 2.1-2.91 1.482 0 2.097 1.27 2.097 2.91 0 1.638-.615 2.91-2.098 2.91zm11.395-2.347c0 1.468-.723 2.374-1.89 2.374-1.166 0-1.873-.93-1.873-2.4v-5.128h-1.837v5.154c0 2.674 1.496 4.17 3.71 4.17 2.335 0 3.725-1.536 3.725-4.195v-5.128h-1.835v5.154zm9.754-1.272c0 .512.025 1.665.025 2.006-.12-.237-.42-.695-.642-1.037L35.66 47.68h-1.757v9.18h1.81v-4.04c0-.51-.026-1.663-.026-2.004.118.235.42.694.643 1.036l3.37 5.01h1.64v-9.18h-1.81v3.882zm7.04-3.882h-2.872v9.18h2.74c2.36 0 4.695-1.365 4.695-4.59 0-3.358-1.94-4.59-4.563-4.59zm-.132 7.397h-.904v-5.614h.97c1.94 0 2.742.93 2.742 2.806 0 1.68-.88 2.807-2.808 2.807zm10.372-5.72c.826 0 1.35.368 1.68.998l1.704-.787c-.578-1.19-1.628-2.03-3.358-2.03-2.397 0-4.077 1.94-4.077 4.732 0 2.897 1.61 4.732 4.01 4.732 1.666 0 2.768-.773 3.397-2.07l-1.547-.92c-.485.814-.97 1.168-1.797 1.168-1.376 0-2.177-1.26-2.177-2.91 0-1.704.79-2.91 2.164-2.91zm6.81-1.678h-1.837v9.18H67.3v-1.81h-3.68v-7.37zm8.516-.143c-2.505 0-3.986 1.94-3.986 4.732 0 2.793 1.48 4.732 3.986 4.732 2.504 0 3.986-1.94 3.986-4.732 0-2.793-1.482-4.733-3.986-4.733zm0 7.643c-1.483 0-2.098-1.272-2.098-2.91 0-1.64.615-2.91 2.098-2.91 1.48 0 2.096 1.27 2.096 2.91 0 1.638-.616 2.91-2.096 2.91zm11.394-2.347c0 1.468-.72 2.374-1.887 2.374-1.17 0-1.875-.93-1.875-2.4v-5.128h-1.836v5.154c0 2.674 1.495 4.17 3.71 4.17 2.335 0 3.724-1.536 3.724-4.195v-5.128H83.53v5.154zm7.002-5.154h-2.87v9.18h2.74c2.36 0 4.693-1.365 4.693-4.59 0-3.358-1.94-4.59-4.563-4.59zm-.13 7.397h-.906v-5.614h.97c1.94 0 2.74.93 2.74 2.806 0 1.68-.878 2.807-2.805 2.807z" fill="#444" fill-rule="evenodd"/></svg>