<svg width="100" height="44" viewBox="0 0 100 44" xmlns="http://www.w3.org/2000/svg"><title>icon-silk</title><path d="M44.792 34.542c1.26.972 4.214 2.594 7.85 2.594 5.368 0 8.465-3.42 8.465-7.564 0-8.14-11.922-6.915-11.922-11.706 0-1.728 1.514-2.88 3.89-2.88 1.98 0 3.386.79 4.43 1.404.756.396 1.512.54 2.052-.504l.648-1.19c.432-.79.324-1.475-.468-2.052-1.08-.79-3.564-1.943-6.59-1.943-4.86 0-8.607 2.918-8.607 7.42 0 7.96 11.92 6.95 11.92 11.813 0 1.73-1.44 2.918-3.817 2.918-2.52 0-4.357-1.296-5.186-1.872-.9-.504-1.514-.468-2.09.324l-.792 1.153c-.72.972-.36 1.583.217 2.09v-.003zm21.32-19.34H67.7c.973 0 1.513-.505 1.513-1.477v-1.08c0-.972-.54-1.513-1.512-1.513h-1.584c-.973 0-1.478.54-1.478 1.513v1.08c0 .972.505 1.477 1.478 1.477zm-1.475 19.99c0 1.007.504 1.512 1.476 1.512h1.585c.973 0 1.477-.505 1.477-1.513V19.85c0-.97-.504-1.513-1.477-1.513h-1.583c-.973 0-1.478.542-1.478 1.513V35.19zm9.04-4.215c0 5.258 3.132 5.906 5.582 5.906 1.08 0 1.512-.61 1.512-1.55v-1.222c0-.828-.47-1.224-1.117-1.296-.685-.072-1.44-.396-1.44-2.196V12.644c0-.97-.505-1.512-1.478-1.512h-1.583c-.974 0-1.478.54-1.478 1.513v18.332zM83.76 35.19c0 1.01.54 1.515 1.514 1.515h1.55c1.007 0 1.51-.505 1.51-1.514v-6.518h2.378L95 35.66c.394.72.935 1.043 1.763 1.043h1.945c1.224 0 1.62-.756 1.008-1.8l-5.403-8.284v-.073l4.574-6.41c.684-.972.29-1.8-.936-1.8h-1.728c-.828 0-1.37.287-1.8 1.007l-3.818 5.475h-2.27V12.643c0-.97-.504-1.512-1.513-1.512h-1.548c-.97 0-1.512.54-1.512 1.513V35.19zM34 28.1c.193.1.384.22.57.363 2.15 2.653-6.678 10.533-6.678 10.533s-5.455 4.91-12.695 4.067C7.96 42.22 3.215 37.228 0 33.19c1.244-3.424 3.94-6.85 6.25-8.498-2.166-2.98-3.108-6.26-2.83-10.32C3.833 8.234 9.487 2.12 11.424.205c2.876.603 11.07 2.94 15.82 7.245 4.747 4.303 7.662 9.295 7.662 15.78 0 1.557-.36 3.23-.907 4.87zM6.82 25.43c.785 1.2 1.87 2.756 2.088 3.07-1.518 1.33-2.777 2.677-3.656 4.652 1.072 1.213 3.823 4.42 9.583 5.487 2.962.55 5.76-.4 8.014-1.718 1.623.387 3.48.76 4.78.983-6.822-1.716-12.18-4.793-17.1-8.82-1.46-1.196-2.7-2.403-3.712-3.656zm6.42-19.68c-.88 1.044-3.95 3.718-4.57 8.565-.622 4.847 2.58 9.01 6.054 11.81 3.474 2.796 8.192 5.212 11.78 6.378 0 0 3.29-4.633 3.29-9.776s-2.122-8.03-5.274-10.903C21.198 8.8 15.59 6.248 13.24 5.752z" fill="#444" /></svg>
