<?xml version="1.0" encoding="utf-8"?>
<!-- Generator: Adobe Illustrator 17.1.0, SVG Export Plug-In . SVG Version: 6.00 Build 0)  -->
<!DOCTYPE svg PUBLIC "-//W3C//DTD SVG 1.1//EN" "http://www.w3.org/Graphics/SVG/1.1/DTD/svg11.dtd">
<svg version="1.1" id="Layer_1" xmlns="http://www.w3.org/2000/svg" xmlns:xlink="http://www.w3.org/1999/xlink" x="0px" y="0px"
	 viewBox="0 0 100 100" enable-background="new 0 0 100 100" xml:space="preserve">
<g>
	<path fill="#444444" d="M98.3,26.5c-1.2-5.3-5.6-9.2-10.8-9.8c-12.4-1.4-24.9-2.2-37.4-2.2s-25,0.9-37.4,2.2C7.3,17.3,3,21.2,1.8,26.5
		C0,34,0,42.2,0,50s0,16,1.7,23.5c1.2,5.3,5.6,9.2,10.8,9.8c12.4,1.4,24.9,2.2,37.4,2.2s25-0.9,37.4-2.2c5.2-0.6,9.6-4.5,10.8-9.8
		C100,66,100,57.8,100,50S100,34,98.3,26.5 M67,52.3L43.5,65c-2.3,1.3-4.3,0.1-4.3-2.5v-25c0-2.7,1.9-3.8,4.3-2.5L67,47.7
		C69.4,49,69.4,51,67,52.3"/>
</g>
</svg>
