<svg width="64" height="55" viewBox="0 0 64 55" xmlns="http://www.w3.org/2000/svg"><title>icon-vimeo</title><path d="M63.557 7.143c-.714-3.343-2.5-5.543-5.8-6.614C56.7.185 55.372 0 53.914 0c-3.1 0-6.77.857-9.6 2.93-4.27 3.113-6.8 8.527-7.685 11.97 1.74-.757 2.97-1.014 4.556-1.014.314 0 .657.014 1.014.028 2.143.115 3.5 1.715 3.557 3.615.043 1.4-.028 2.67-.514 3.956-1.543 4.1-3.957 8.07-6.8 11.543-.414.513-.914.984-1.43 1.413-.584.486-1.142.714-1.656.714-.743 0-1.414-.5-1.97-1.457-.773-1.33-1.287-2.7-1.744-4.157-1.772-5.672-2.4-11.557-3.4-17.372-.472-2.784-1-5.684-2.572-8.127-1.427-2.2-3.427-3.23-5.927-3.23-.4 0-.8.03-1.23.073-2.1.257-5.27 2.5-6.827 3.77 0 0-8 6.7-11.686 10.2l3.03 3.858S5.585 16.93 6.956 16.1c.414-.257.872-.4 1.314-.4.416 0 .816.13 1.144.43.643.556 1.372 1.284 1.757 2.013.816 1.528 1.6 3.128 2.1 4.77 1.887 6.33 3.644 12.673 5.4 19.044.9 3.257 1.987 6.315 4 9.086 1.887 2.6 3.844 3.83 6.33 3.83 1.143 0 2.4-.26 3.8-.773 3.63-1.3 6.657-3.743 9.43-6.27 4.727-4.316 8.442-9.344 12.213-14.46 2.914-3.956 5.33-7.956 7.343-12.427 2-4.4 2.786-9.043 1.77-13.8zm-3.843 12.843c-1.9 4.2-4.157 8.028-7.1 12.014l-.042.057c-3.772 5.1-7.33 9.93-11.872 14.072-2.543 2.327-5.357 4.627-8.657 5.813-1.186.43-2.172.63-3.03.63-1.17 0-2.627-.344-4.484-2.887-1.916-2.63-2.887-5.572-3.644-8.343C19.114 34.9 17.37 28.6 15.47 22.257c-.556-1.886-1.456-3.686-2.27-5.2-.457-.843-1.2-1.714-2.27-2.657-.744-.643-1.66-.986-2.66-.986-.84 0-1.713.257-2.5.73-.64.385-1.5.956-2.27 1.47l-.4-.514c3.843-3.486 9.757-8.443 10.043-8.686 2.114-1.728 4.543-3.128 5.643-3.27.328-.044.643-.058.943-.058 1.77 0 3.04.7 4.013 2.185 1.357 2.1 1.828 4.844 2.243 7.273.228 1.386.457 2.8.67 4.157.687 4.443 1.4 9.043 2.8 13.514.43 1.386 1 3.03 1.944 4.643 1.257 2.143 2.843 2.586 3.943 2.586 1.057 0 2.1-.414 3.1-1.23.657-.527 1.243-1.113 1.757-1.742 3.13-3.827 5.614-8.04 7.172-12.184.642-1.715.7-3.33.657-4.83-.087-3.2-2.487-5.656-5.716-5.842-.414-.028-.785-.028-1.143-.028-.313 0-.613.014-.9.028 1.26-2.585 3.102-5.185 5.387-6.843 2.143-1.556 5.23-2.5 8.257-2.5 1.186 0 2.3.144 3.13.416 2.428.785 3.713 2.257 4.27 4.914.858 3.986.315 8.143-1.6 12.386z" fill="#444"/></svg>
