<svg height="1000" width="861" xmlns="http://www.w3.org/2000/svg"><path d="M0 712q0-44 31.5-76t76.5-32q44 0 76 32t32 76q0 46-34 78 65 74 163 74 69 0 116-41 47-42 47-106 0-39-25-77-23-38-60-64-34-23-115-57-75-30-122-59-42-27-73-64-30-36-46-74-14-39-14-79 0-101 81-172 82-71 197-71 77 0 155 33 66 28 113 80 37 32 37 80 0 45-32 76.5t-76 31.5q-45 0-76.5-31.5t-31.5-76.5q0-21 10-44-32-16-88-16-69 0-112 31t-43 80q0 43 38 76 40 33 128 71 92 40 141 73 51 34 82 74 33 41 48 85 0 1 1 3t1 3q-75 62-75 158 0 53 28 104-11 13-24 27-87 82-206 82t-208-64-139-194l3-1q-5-15-5-29zm613 75q0 52 36 88.5t88 36.5 88-36.5 36-88.5q0-51-36-87.5t-88-36.5-88 36.5-36 87.5z"/></svg>