<?xml version="1.0" encoding="utf-8"?>
<!-- Generator: Adobe Illustrator 17.1.0, SVG Export Plug-In . SVG Version: 6.00 Build 0)  -->
<!DOCTYPE svg PUBLIC "-//W3C//DTD SVG 1.1//EN" "http://www.w3.org/Graphics/SVG/1.1/DTD/svg11.dtd">
<svg version="1.1" id="Layer_1" xmlns="http://www.w3.org/2000/svg" xmlns:xlink="http://www.w3.org/1999/xlink" x="0px" y="0px"
	 viewBox="0 0 100 100" enable-background="new 0 0 100 100" xml:space="preserve">
<g id="Your_Icon">
	<g id="Instagram_Icon">
		<g>
			<path fill="#444" d="M73.1,48.7c0,12.8-10.4,23.1-23.1,23.1c-12.8,0-23.1-10.4-23.1-23.1c0-2.9,0.6-5.6,1.5-8.2H0V75c0,13.8,11.2,25,25,25h50
				c13.8,0,25-11.2,25-25V40.5H71.6C72.6,43.1,73.1,45.8,73.1,48.7z"/>
			<circle fill="#444" cx="50" cy="48.7" r="13.9"/>
			<path fill="#444" d="M75,0H26.3v26.1h-5.5V0.4c-1.9,0.3-3.7,0.8-5.5,1.5V26H9.9V5C3.9,9.7,0,16.9,0,25v7.3h33.7c4.2-4.2,10-6.7,16.3-6.7
				s12.1,2.6,16.3,6.7H100V25C100,11.2,88.8,0,75,0z M86.2,23.6c0,1.5-1.3,2.8-2.8,2.8H75c-1.6,0-2.8-1.3-2.8-2.8v-8.4
				c0-1.6,1.3-2.8,2.8-2.8h8.4c1.6,0,2.8,1.3,2.8,2.8V23.6z"/>
		</g>
	</g>
</g>
</svg>
