<svg width="100" height="18" viewBox="0 0 100 18" xmlns="http://www.w3.org/2000/svg"><title>icon-livestream</title><g fill="none" fill-rule="evenodd"><path d="M20.198 3.048h-2.452l-.012.003-.013.005-.014.006-.016.01-.018.008-.018.01-.02.013-.02.015-.02.016-.02.018-.023.02-.022.02-.023.022-.023.024-.024.026-.025.027-.025.03-.025.03-.026.03-.026.034-.026.036-.027.037-.028.038-.03.04-.026.042-.03.042-.028.044-.03.046-.03.047-.028.05-.03.05-.03.05-.03.053-.032.054-.03.056-.033.057-.032.058-.03.06-.033.06-.033.063-.033.064-.032.064-.033.066-.034.068-.032.068-.034.07-.034.07-.035.072-.035.073-.034.074-.036.074-.035.076-.035.078-.036.078-.036.08-.036.08-.037.08-.036.083-.038.082-.037.084-.037.085-.037.087-.037.086-.037.088-.038.09-.038.088-.04.09-.037.09-.038.09-.04.092-.038.092-.04.093-.04.093-.038.094-.04.095-.04.094-.04.097-.04.096-.04.096-.04.096-.042.097-.04.097-.04.098-.042.098-.005.01-.036.088-.04.098-.043.1-.04.097-.042.098-.042.1-.042.1-.042.098-.042.1-.043.098-.043.1-.043.098-.04.1-.044.098-.044.1-.043.098-.044.098-.044.098-.044.098-.044.098-.044.097-.044.098-.044.096-.044.097-.045.096-.045.096-.044.094-.045.094-.046.094-.045.094-.047.092-.045.093-.046.092-.045.09-.046.09-.045.09-.046.09-.047.088-.046.087-.047.086-.046.086-.047.083-.046.084-.046.083-.047.082-.047.08-.047.08-.048.08-.047.078-.018.03 4.006 2.028.11.056h.031l.015-.005.016-.006.015-.007.016-.01.014-.01.015-.012.015-.015.014-.015.015-.018.013-.02.014-.02.015-.025.014-.024.014-.027.015-.027.014-.03.013-.032.014-.032.014-.036.015-.036.014-.038.012-.04.014-.042.014-.043.014-.045.014-.046.013-.048.015-.05.014-.05.012-.053.014-.053.014-.055.013-.056.014-.06.013-.058.014-.06.013-.063.014-.064.014-.064.014-.066.013-.067.015-.07.014-.07.012-.07.013-.072.014-.073.012-.074.014-.076.014-.077.014-.078.013-.08.014-.08.015-.08.013-.082.014-.083.014-.084.014-.084.014-.087.014-.086.014-.087.014-.088.015-.09.015-.09.014-.09.014-.09.014-.09.015-.094.014-.092.015-.094.015-.094.014-.094.016-.095.015-.097.016-.096.016-.096.015-.095.015-.098.016-.097.015-.098.015-.098.016-.098.016-.098.016-.1.015-.098.017-.1.016-.098.016-.1.015-.098.017-.1.016-.098.017-.1.016-.1.018-.098.016-.1.017-.097.018-.098.017-.098.017-.098.018-.098.017-.098.017-.097.018-.097.017-.097.017-.097.018-.096.018-.096.018-.093.02-.095.017-.094.02-.093.017-.093.02-.092.017-.092.02-.09.02-.09.018-.09.02-.09.02-.087.02-.087.018-.086.02-.086.02-.084.02-.084.02-.083.02-.083.02-.08.02-.082.022-.08.02-.077.02-.078.022-.076.02-.075.023-.075.02-.073.023-.072.02-.07.023-.07.02-.068.023-.068.023-.066.022-.064.022-.063.023-.062.022-.06.023-.06.023-.058.024-.057.023-.056.023-.054.023-.053.024-.05.023-.05.023-.05.024-.046.023-.046.023-.044.024-.042.023-.042.024-.04.023-.037.023-.037.023-.035.024-.032.023-.032.023-.03.022-.03.022-.026.023-.026.022-.024.02-.022.022-.02.02-.02.022-.017.02-.015.02-.014.017-.012.018-.01.02-.01.015-.007.015-.005.013-.004.012-.002h.007-.004z" fill="#777"/><path d="M22.867 14.785l-.258.01-.186-.01-.135-.02-.096-.025-.088-.034-.08-.043-.052-.034-.047-.04-.045-.044-.04-.05-.058-.083-.05-.097-.04-.11-.046-.168-.037-.25-.015-.358V12.62l-.002-.202-.002-.202v-.203l-.002-.202-.002-.2-.003-.2-.003-.2-.003-.2-.004-.197-.004-.197-.005-.195-.005-.194-.005-.193-.006-.192-.007-.19-.007-.19-.007-.187-.008-.186-.008-.184-.008-.183-.008-.18-.01-.18-.01-.177-.01-.175-.01-.173-.01-.17-.012-.17-.012-.165-.013-.164-.012-.16-.013-.16-.014-.156-.014-.154-.015-.152-.014-.148-.016-.145-.017-.142-.017-.14-.017-.137-.02-.133-.018-.13-.02-.13-.02-.124-.02-.12-.02-.12-.02-.115-.023-.11-.024-.11-.023-.104-.023-.102-.024-.098-.025-.094-.025-.09L20.93 4l-.027-.084-.027-.08-.027-.076-.03-.072-.028-.07-.03-.064-.03-.06-.03-.058-.03-.054-.033-.05-.033-.045-.033-.043-.034-.038-.034-.035-.035-.03-.035-.025-.035-.022-.037-.018-.037-.014-.038-.01-.04-.007-.038-.002h-2.457.04l.038.007.04.01.036.015.037.018.036.022.035.026.034.03.034.033.033.037.033.042.032.045.032.05.03.053.032.057.03.06.03.066.028.07.028.072.028.076.027.08.026.084.026.087.024.09.025.094.023.098.024.102.023.104.022.11.022.11.022.115.02.12.02.12.02.125.02.128.018.13.018.135.018.138.017.14.016.143.016.146.015.148.015.152.014.154.014.156.014.16.013.16.012.164.012.166.01.17.012.17.01.172.01.175.01.177.01.18.008.18.008.183.008.184.007.186.007.188.006.19.007.19.005.193.006.193.004.195.005.196.004.197.003.198.004.2.003.2.002.2v.2l.004.203v.203l.002.202v.203l.002.205v.975l.02.487.05.434.084.388.112.34.138.3.162.257.12.15.127.136.207.177.222.144.232.118.242.092.334.088.425.063.587.028.543-.03.236-.03v-2.163l-.113.01zM17 14.772l-.015-.004-.015-.006-.016-.008-.015-.01-.017-.01-.016-.014v-.002l-.015-.014-.016-.017-.016-.02-.016-.02-.016-.023-.017-.024-.015-.027-.016-.028-.018-.03-.017-.032-.016-.034-.018-.037-.017-.038-.017-.04-.018-.04-.017-.044-.017-.044-.018-.047-.018-.05-.017-.05-.018-.052-.018-.054-.018-.056-.02-.057-.018-.06-.02-.06-.017-.063-.02-.064-.018-.067-.02-.068-.02-.07-.018-.07-.02-.074-.02-.074-.02-.076-.02-.078-.02-.08-.022-.08-.02-.083-.02-.084-.022-.087-.02-.087-.023-.09-.02-.088-.023-.092-.022-.093-.022-.094-.023-.096-.022-.098-.022-.098-.023-.1-.024-.1-.022-.102-.024-.104-.024-.104-.024-.106-.025-.107-.023-.107-.025-.11-.026-.11-.025-.11-.025-.113-.026-.113-.028-.114-.027-.115-.027-.116-.027-.117-.027-.118-.028-.118-.028-.12-.03-.12-.028-.12-.03-.12-.03-.123-.03-.12-.03-.124-.032-.123-.032-.125-.03-.124-.034-.125-.032-.127-.03-.107-.004-.018-.033-.126-.034-.127-.036-.126-.035-.128-.037-.127-.037-.127-.036-.127-.038-.127-.038-.127-.038-.128-.04-.127-.04-.126-.04-.127-.04-.127-.043-.127-.043-.126-.044-.127-.045-.126-.044-.125-.046-.127-.047-.124-.048-.126-.05-.124-.048-.123-.05-.123-.053-.122-.053-.12-.054-.122-.055-.12-.056-.12-.058-.118-.06-.117-.06-.117-.064-.116-.064-.114-.066-.114-.07-.113-.068-.11-.072-.11-.074-.11-.077-.11-.077-.106-.082-.106-.082-.104-.086-.103-.09-.1-.092-.1-.095-.1-.098-.098-.102-.095-.105-.095-.11-.092-.112-.09-.117-.09-.12-.088-.127-.086-.132-.085-.135-.08-.142-.082-.15-.08-.153-.075-.162-.075-.17-.073-.176-.07-.186-.07L9.95.868 9.744.803 9.527.74l-.23-.06-.243-.06-.26-.055L8.52.51 8.223.46 7.905.41 7.562.362 7.19.317 6.783.275l-.446-.04-.495-.04L5.29.162 4.666.13l-.71-.03L3.142.07 2.208.044 1.156.02.03 0H.024l.065.02.064.024.065.026.064.028.066.03L.41.16l.065.036.064.038.064.04.064.043.064.045.064.048.064.05.064.05.064.055.064.056.064.06.063.06.063.063.064.065.063.067.064.07.063.07.063.073.064.075.063.076.063.078.064.08.062.083.064.086.062.086.063.087.063.09.063.09.064.092.062.095.063.095.062.098.062.1.063.1.062.1.06.104.064.104.062.106.062.107.062.11.062.11.062.11.062.11.062.114.06.114.063.114.063.116.06.117.063.117.06.12.062.118.062.12.06.12.062.122.06.122.062.123.06.123.062.124.06.125.062.123.06.126.06.124.062.126.06.127.06.126.06.127.06.127.062.127.06.127.06.128.06.128.06.127.06.128.06.128.06.127.06.127.06.127.06.125.058.127.06.126.06.125.058.126.06.124.06.124.058.125.06.123.058.123.06.12.058.123.058.122.06.12.058.12.058.12.06.117.057.118.06.117.057.116.058.115.058.114.058.113.058.112.058.11.058.11.058.11.058.108.057.107.058.106.058.104.057.104.058.102.058.1.057.1.057.098.057.098.056.095.057.093.057.093.057.092.057.09.056.088.056.087.057.086.056.083.056.082.056.08.056.08.056.08.056.075.056.074.056.073.055.072.056.068.055.068.056.067.055.064.055.063.055.06.055.06.055.058.055.056.055.054.055.052.055.05.054.05.055.046.054.045.054.044.054.042.055.04.054.037.055.036.054.033.053.032.054.03.054.028.054.027.054.024.053.023.055.02.053.02.053.017.055.016.053.013.053.01.054.01.052.01.053.005.052.004.053.002h6.652L17 14.772zM24 3.047h2.458V5.25H24V3.048zm0 3.9h2.477v9.948H24V6.948zM26.945 6.948h2.614l2.066 6.163c.195.586.332 1.503.35 1.503h.04c.02 0 .156-.917.35-1.502l2.07-6.162h2.612l-3.57 9.947h-2.925l-3.608-9.947zM41.637 6.714c2.867 0 4.408 2.087 4.408 4.72 0 .292-.058.956-.058.956H39.12c.157 1.735 1.503 2.633 2.985 2.633 1.6 0 2.867-1.093 2.867-1.093l.956 1.775s-1.52 1.424-3.998 1.424c-3.296 0-5.344-2.38-5.344-5.208 0-3.063 2.087-5.208 5.05-5.208zm1.912 3.98c-.04-1.347-.88-2.068-1.97-2.068-1.27 0-2.147.78-2.38 2.067h4.35zM47.244 14.75s1.092 1.19 2.926 1.19c1.053 0 1.97-.527 1.97-1.56 0-2.146-5.286-1.62-5.286-4.818 0-1.756 1.58-2.71 3.355-2.71 2.066 0 3.022 1.07 3.022 1.07l-.605 1.016s-.84-.898-2.457-.898c-.995 0-1.95.43-1.95 1.522 0 2.165 5.285 1.58 5.285 4.817 0 1.6-1.385 2.75-3.355 2.75-2.38 0-3.627-1.425-3.627-1.425l.72-.955zM55.426 8.313h-1.288v-1.11h1.307v-2.83h1.307v2.83h2.457v1.11H56.75v4.876c0 2.3 1.463 2.593 2.204 2.593.273 0 .448-.04.448-.04v1.19s-.214.04-.565.04c-1.132 0-3.414-.37-3.414-3.647V8.313zM60.48 7.085h1.305V8.82c0 .43-.04.78-.04.78h.04c.47-1.482 1.56-2.613 3.102-2.613.273 0 .526.06.526.06V8.35s-.234-.04-.487-.04c-1.385 0-2.42 1.094-2.848 2.537-.195.623-.273 1.286-.273 1.91v4.135H60.48v-9.81zM70.328 6.85c2.71 0 4.096 2.087 4.096 4.525 0 .234-.04.683-.04.683h-7.528c.06 2.516 1.775 3.88 3.803 3.88 1.794 0 2.983-1.188 2.983-1.188l.605 1.014s-1.424 1.365-3.628 1.365c-2.925 0-5.13-2.107-5.13-5.13 0-3.22 2.185-5.15 4.838-5.15zm2.75 4.116c-.078-2.048-1.326-3.004-2.79-3.004-1.637 0-3.06 1.034-3.373 3.004h6.163zM81.148 10.83h.546v-.254c0-1.892-1.034-2.536-2.438-2.536-1.62 0-2.77.937-2.77.937l-.623-1.015s1.287-1.11 3.49-1.11c2.36 0 3.667 1.305 3.667 3.763v6.28h-1.267v-1.073c0-.487.04-.82.04-.82h-.04s-.82 2.127-3.277 2.127c-1.638 0-3.335-.957-3.335-2.907 0-3.316 4.31-3.394 6.008-3.394zm-2.457 5.168c1.873 0 3.004-1.95 3.004-3.647v-.428h-.565c-1.542 0-4.624.058-4.624 2.223 0 .917.722 1.853 2.185 1.853zM85.1 7.085h1.308v1.463c0 .43-.04.78-.04.78h.04C86.876 8 88.436 6.85 89.958 6.85c1.813 0 2.75.84 3.042 2.458h.04c.526-1.326 1.95-2.457 3.608-2.457 2.38 0 3.257 1.385 3.257 3.804v6.24h-1.327v-5.91c0-1.598-.33-2.924-2.126-2.924-1.5 0-2.73 1.326-3.1 2.77-.137.43-.176.897-.176 1.423v4.642H91.85v-5.91c0-1.482-.215-2.925-2.068-2.925-1.6 0-2.808 1.385-3.218 2.886-.097.41-.136.86-.136 1.307v4.642h-1.326v-9.81z" fill="#444"/></g></svg>