<svg width="64" height="64" viewBox="0 0 64 64" xmlns="http://www.w3.org/2000/svg"><title>icon-instagram</title><g fill="#444"><path d="M46.784 31.168c0 8.192-6.656 14.784-14.784 14.784-8.192 0-14.784-6.656-14.784-14.784 0-1.856.384-3.584.96-5.248H0V48c0 8.832 7.168 16 16 16h32c8.832 0 16-7.168 16-16V25.92H45.824c.64 1.664.96 3.392.96 5.248z"/><circle cx="32" cy="31.168" r="8.896"/><path d="M48 0H16.832v16.704h-3.52V.256c-1.216.192-2.368.512-3.52.96V16.64H6.336V3.2C2.496 6.208 0 10.816 0 16v4.672h21.568c2.688-2.688 6.4-4.288 10.432-4.288s7.744 1.664 10.432 4.288H64V16c0-8.832-7.168-16-16-16zm7.168 15.104c0 .96-.832 1.792-1.792 1.792H48c-1.024 0-1.792-.832-1.792-1.792V9.728c0-1.024.832-1.792 1.792-1.792h5.376c1.024 0 1.792.832 1.792 1.792v5.376z"/></g></svg>