<svg width="100" height="38" viewBox="0 0 100 38" xmlns="http://www.w3.org/2000/svg"><title>Infogram Logo</title><path d="M100 .8H13.6L0 28.1h18.2v9.1l9.1-9.1H100V.8zM28.9 8.4c0 .5-.5.9-.9.9-.5 0-.9-.4-.9-.9 0-.6.4-.9.9-.9s.9.3.9.9zM28.7 19h-1.4v-8.7h1.4V19zm3.1-5.9V19h-1.5v-8.7h1.2l.2.9c.3-.8 1-.9 1.5-1 1.6-.1 2.9 1.4 2.9 2.9V19h-1.5v-5.9c0-.8-.6-1.4-1.4-1.4-.7 0-1.4.6-1.4 1.4zm7.5 5.9h-1.4V9.5c0-1.7 1.6-2.9 3.4-2.9V8c-1.1 0-2 .7-2 1.5v2.7h1.8v1.4h-1.8V19zm8.5-2.8c0 1.9-1.5 2.9-2.9 2.9-1.5 0-2.9-.9-2.9-2.9V13c0-2 1.5-2.9 2.9-2.9 1.5 0 2.9.9 2.9 2.9v3.2zm-1.5-3.1c0-.9-.7-1.4-1.5-1.4-.7 0-1.5.5-1.5 1.4v3.2c0 .9.8 1.4 1.5 1.4s1.5-.5 1.5-1.4v-3.2zm5.7 9.5c-.6 0-1.6-.3-2.3-1l.8-1.2c.5.4 1.1.7 1.5.7.8 0 1.4-.6 1.4-1.4v-1.5c-.3.7-1 .9-1.4.9-1.5 0-2.9-1-2.9-2.7v-3.5c0-1.4 1.4-2.8 2.9-2.7.6.1 1.3.3 1.5 1.1l.1-1H55v9.4c0 1.7-1.4 2.9-3 2.9zm-1.3-6.2c0 .787.6 1.2 1.4 1.2.7 0 1.4-.5 1.4-1.2v-3.5c0-.7-.8-1.2-1.4-1.2-.7 0-1.4.5-1.4 1.2v3.5zm5.7 2.6v-8.7h1.2l.2.9c.5-1.3 1.9-1.3 2.9-.5l-.6 1.3c-.8-.6-2.1-.5-2.3.7V19h-1.4zm6.3-.9c0 .6-.4.9-.9.9s-.9-.4-.9-.9.4-.9.9-.9.9.4.9.9zm2-1.9v-.5c0-1.5 1.2-2.8 2.8-2.8.6 0 1.3.4 1.5 1v-.8c0-.8-.6-1.4-1.4-1.4-.4 0-.9.2-1.4.7l-.8-1.2c.6-.6 1.5-1 2.2-1 1.5 0 2.9 1.3 2.9 2.9V19h-1.2l-.1-.9c-.2.8-1.1 1-1.6 1-1.6 0-2.9-1.3-2.9-2.9zm2.9 1.4c.7 0 1.4-.6 1.4-1.2v-.9c0-.7-.6-1.2-1.4-1.2-.8 0-1.4.6-1.4 1.4v.5c0 .8.6 1.4 1.4 1.4zm5.7 1.4h-1.4v-8.7H73l.2.9c.4-.7 1-.9 1.6-1 .7 0 1.7.3 2.1 1.4.4-1.1 1.3-1.4 2.2-1.4 1.6 0 2.8 1.3 2.8 2.9V19h-1.4v-5.9c0-2-2.8-1.9-2.8 0V19h-1.4v-5.9c0-.8-.6-1.4-1.4-1.4-.8 0-1.4.7-1.4 1.4V19h-.2z" fill="#444" fill-rule="evenodd"/></svg>