<svg width="57" height="64" viewBox="0 0 57 64" xmlns="http://www.w3.org/2000/svg"><title>icon-vine</title><path d="M27.218 16.774c0 9.476 4.418 17.607 11.716 21.32-3.073 6.146-6.978 11.524-11.012 15.622-7.426-8.963-14.085-20.872-16.838-44.112V8.387H.2v1.217C5.194 48.338 20.24 60.63 24.21 63c2.24 1.344 4.16 1.28 6.21.128 3.2-1.857 12.868-11.525 18.246-22.857 2.24 0 4.93-.255 7.62-.895V31.82c-1.666.384-3.266.576-4.675.576-8.066 0-14.276-5.634-14.276-15.43 0-4.8 1.857-7.298 4.482-7.298 2.496 0 4.16 2.24 4.16 6.786 0 2.24.193 5.058-1.215 5.89v1.217s2.498 4.354 9.284 3.01c1.473-3.2 2.24-7.363 2.24-11.012V14.34C55.902 5.25 50.972 0 42.137 0c-9.092 0-14.598 6.53-14.918 15.622v1.152z" fill="#444"/></svg>
