<svg width="56" height="64" viewBox="0 0 56 64" xmlns="http://www.w3.org/2000/svg"><title>icon-scribd</title><path d="M0 45.568c0-1.877.672-3.5 2.016-4.864 1.344-1.365 2.976-2.048 4.896-2.048 1.877 0 3.5.683 4.864 2.048 1.365 1.365 2.048 2.987 2.048 4.864 0 1.963-.725 3.627-2.176 4.992 2.773 3.157 6.25 4.736 10.432 4.736 2.944 0 5.42-.875 7.424-2.624 2.005-1.792 3.008-4.053 3.008-6.784 0-1.664-.533-3.307-1.6-4.928-.98-1.62-2.26-2.987-3.84-4.096-1.45-.98-3.904-2.197-7.36-3.648-3.2-1.28-5.803-2.54-7.808-3.776-1.792-1.152-3.35-2.517-4.672-4.096-1.28-1.536-2.26-3.115-2.944-4.736-.597-1.664-.896-3.35-.896-5.056 0-4.31 1.728-7.98 5.184-11.008C12.076 1.514 16.276 0 21.184 0c3.285 0 6.592.704 9.92 2.112 2.816 1.195 5.227 2.9 7.232 5.12 1.58 1.365 2.368 3.072 2.368 5.12 0 1.92-.683 3.552-2.048 4.896-1.365 1.344-2.987 2.016-4.864 2.016-1.92 0-3.552-.672-4.896-2.016-1.344-1.344-2.016-2.976-2.016-4.896 0-.896.213-1.835.64-2.816-1.365-.683-3.243-1.024-5.632-1.024-2.944 0-5.333.66-7.168 1.984-1.835 1.323-2.752 3.03-2.752 5.12 0 1.835.81 3.456 2.432 4.864 1.707 1.408 4.437 2.923 8.192 4.544 3.925 1.707 6.933 3.264 9.024 4.672 2.176 1.45 3.925 3.03 5.248 4.736 1.408 1.75 2.432 3.563 3.072 5.44 0 .043.02.107.064.192.043.085.064.15.064.192-3.2 2.645-4.8 6.016-4.8 10.112 0 2.26.597 4.48 1.792 6.656-.47.555-.98 1.13-1.536 1.728C31.808 62.252 27.413 64 22.336 64s-9.515-1.365-13.312-4.096c-3.797-2.73-6.763-6.87-8.896-12.416l.192-.064c-.213-.64-.32-1.26-.32-1.856zm39.232 4.8c0 2.22.768 4.107 2.304 5.664 1.536 1.557 3.413 2.336 5.632 2.336 2.22 0 4.096-.78 5.632-2.336 1.536-1.557 2.304-3.445 2.304-5.664 0-2.176-.768-4.043-2.304-5.6-1.536-1.557-3.413-2.336-5.632-2.336-2.22 0-4.096.78-5.632 2.336-1.536 1.557-2.304 3.424-2.304 5.6z" fill="#444"/></svg>
