<svg width="100" height="18" viewBox="0 0 100 18" xmlns="http://www.w3.org/2000/svg"><title>icon-guardian</title><g fill="none" fill-rule="evenodd"><path d="M6.533 4.252H4.476l.012-2.197-3.046.453v1.698l-1.383.21v1.347h1.428l-.01 5.917c.01.213.35 2.133 2.428 2.01 2.357-.137 2.558-.406 2.767-.545-.017.017 0-1.15 0-1.15l-1.28.034s-.72-.048-.836-.85c-.004 0-.023-5.393-.023-5.393l2 .01V4.253zM10.96.06L6.846.65l.006.783 1.093.488.01 10.272-1.033.406.01.843 5.046.007v-.837l-1.018-.442.006-6.073s.576-.256 1.372-.256c.796 0 1.162.51 1.162.824v5.522l-.93.412v.85h5.034v-.815l-1.035-.505V5.903s.024-1.976-2.266-1.878c-1.393.01-2.38.448-3.35 1.215 0-.003 0-5.176.005-5.18zM23.305 7.902l-2.556.115s-.018-1.307.242-2.136c.208-.66.63-.88 1.113-.88.808 0 1.01.45 1.1 1.008.13.8.11 1.885.1 1.894zm2.992 1.19h-5.54s-.033 2.69 2.828 2.71c1.208.008 2.36-.337 2.36-.337v.867s-.89 1.29-3.338 1.373c-3.1-.048-4.75-1.238-4.982-4.44-.024-1.98.482-5.045 4.488-5.235 4.09-.194 4.3 3.037 4.184 5.063z" fill="#999"/><path d="M32.87 6.71v.878s.15 1.58-1.048 1.587c-1.197.006-1.162-.918-1.162-1.587V6.554s-.07-1.5 1.064-1.506c1.133-.005 1.14 1.17 1.145 1.663zm3.695-2.754l-2.55.47s-1.327-.482-2.268-.482c-.634 0-3.9.25-4.02 3.12-.084 2.024 1.625 2.78 1.614 2.78-.01 0-1.627 1-1.638 2.243-.012 1.244 1.464 1.593 1.464 1.593.003-.03-2.232.34-2.232 1.86 0 1.406 2.325 2.092 4.79 2.103 2.464.012 5.172-.685 5.172-3.603s-2.836-2.58-2.836-2.58h-3.65s-.546-.06-.57-.617c-.023-.558.372-.697.372-.697s.78.232 1.593.232c.814 0 4.01-.337 4.01-3.104 0-1.256-.988-1.976-.988-1.976l1.768.474-.03-1.816zm-6.713 10.287s-.413.273-.413.936c0 .662.604 1.348 2.29 1.348 1.685 0 2.504-.587 2.504-1.57 0-.64-.726-.72-.726-.72l-3.656.005zM41 4.008l-4.115.64v.8l1.058.513v5.174s.055 2.54 2.545 2.57c2.023.022 3.034-1.385 3.034-1.385v1.36l3.988-.477v-.732l-1.02-.588v-7.85l-4.095.64v.766l1.08.546v5.522s-.278.232-1.173.302c-.895.07-1.302-.78-1.302-.78V4.01zM48.35 4.67s1.965-.714 3.585-.714c1.62 0 3.96.55 3.96 2.565v5.582l1.004.526v.666s-.716.386-1.768.386-1.965-.534-1.965-1.34c-.228.004-.31 1.324-2.778 1.324-2.878 0-2.656-2.55-2.656-2.598 0-.05-.082-1.902 2.014-2.3 2.07-.396 3.033-.552 3.033-.552l-.01-1.874s-.17-1.135-1.148-1.126c-.978.008-.97.016-.97.016l-.69 1.882h-1.62l.01-2.44zm4.51 7.025V9.163s-2.064-.185-2.068 1.468c-.003 1.244.78 1.39 1.134 1.39.407-.026.677-.17.933-.325zM61.108 3.923l-4.02.633v.84l1.036.492v6.222l-.962.493v.79h5.294v-.757l-1.266-.51.008-5.137s.806-.32 1.62-.32c.813 0 1.216.09 1.216.09V4.07s-1.723-.538-2.943 1.867l.018-2.014zM69.073.857v.814l1.01.486V4.36s-.706-.338-1.56-.338c-.856 0-4.35.13-4.448 4.932-.1 4.8 3.633 4.734 3.6 4.734-.033 0 1.71.05 2.5-.97-.005 0-.01.966-.01.966l3.95-.48v-.782l-.95-.485L73.16.217l-4.085.64zm1.007 4.76v6.238s-.326.165-.933.165c-.988 0-1.823-.672-1.817-2.836.005-1.89.28-3.376 1.108-3.765.827-.39 1.603.144 1.642.196zM78.617 1.747c0 .927-.753 1.68-1.68 1.68-.927 0-1.68-.753-1.68-1.68 0-.927.753-1.68 1.68-1.68.927 0 1.68.753 1.68 1.68zm-.07 2.215l-4.173.592v.802l1.092.535v6.232l-1 .453v.85h5.022v-.815l-.953-.465.012-8.183zM80.452 4.66s1.964-.714 3.584-.714 3.962.55 3.962 2.564v5.58L89 12.62v.665s-.715.387-1.767.387-1.964-.535-1.964-1.34c-.23.004-.313 1.323-2.78 1.323-2.877 0-2.655-2.548-2.655-2.597 0-.05-.082-1.902 2.014-2.302 2.07-.394 3.032-.55 3.032-.55l-.01-1.875s-.17-1.135-1.15-1.127c-.977.01-.97.017-.97.017l-.69 1.882h-1.618l.008-2.44zm4.508 7.025V9.153s-2.063-.185-2.067 1.467c-.003 1.244.78 1.39 1.134 1.39.407-.027.677-.17.933-.325zM93.252 3.938l-4.104.65v.78l1.105.523v6.278l-1.012.407v.872h5.023v-.86l-.93-.442V6.077s.5-.232 1.232-.232c.733 0 1.302.325 1.302 1.046v5.255l-1.03.506-.004.774h5.114v-.826l-1-.418V6.356s.07-2.325-2.29-2.325-3.394 1.245-3.394 1.245l-.01-1.337z" fill="#444"/></g></svg>