<?xml version="1.0" encoding="utf-8"?>
<!-- Generator: Adobe Illustrator 17.1.0, SVG Export Plug-In . SVG Version: 6.00 Build 0)  -->
<!DOCTYPE svg PUBLIC "-//W3C//DTD SVG 1.1//EN" "http://www.w3.org/Graphics/SVG/1.1/DTD/svg11.dtd">
<svg version="1.1" id="Layer_1" xmlns="http://www.w3.org/2000/svg" xmlns:xlink="http://www.w3.org/1999/xlink" x="0px" y="0px"
	 viewBox="0 0 100 100" enable-background="new 0 0 100 100" xml:space="preserve">
<path fill="#444" d="M48.4,26.2c0,14.8,6.9,27.5,18.3,33.3c-4.8,9.6-10.9,18-17.2,24.4c-11.6-14-22-32.6-26.3-68.9v-1.9h-17V15
	C14,75.5,37.5,94.7,43.7,98.4c3.5,2.1,6.5,2,9.7,0.2c5-2.9,20.1-18,28.5-35.7c3.5,0,7.7-0.4,11.9-1.4V49.7c-2.6,0.6-5.1,0.9-7.3,0.9
	c-12.6,0-22.3-8.8-22.3-24.1c0-7.5,2.9-11.4,7-11.4c3.9,0,6.5,3.5,6.5,10.6c0,3.5,0.3,7.9-1.9,9.2v1.9c0,0,3.9,6.8,14.5,4.7
	c2.3-5,3.5-11.5,3.5-17.2v-1.9C93.2,8.2,85.5,0,71.7,0C57.5,0,48.9,10.2,48.4,24.4V26.2z"/>
</svg>
