<?xml version="1.0" encoding="utf-8"?>
<!-- Generator: Adobe Illustrator 17.1.0, SVG Export Plug-In . SVG Version: 6.00 Build 0)  -->
<!DOCTYPE svg PUBLIC "-//W3C//DTD SVG 1.1//EN" "http://www.w3.org/Graphics/SVG/1.1/DTD/svg11.dtd">
<svg version="1.1" id="Layer_1" xmlns="http://www.w3.org/2000/svg" xmlns:xlink="http://www.w3.org/1999/xlink" x="0px" y="0px"
	 viewBox="0 0 100 100" enable-background="new 0 0 100 100" xml:space="preserve">
<polygon fill="#231F20" points="100,31.8 13.6,31.8 0,59.1 18.2,59.1 18.2,68.2 27.3,59.1 100,59.1 "/>
<path fill="#FFFFFF" d="M28.9,39.4c0,0.5-0.5,0.9-0.9,0.9c-0.5,0-0.9-0.4-0.9-0.9c0-0.6,0.4-0.9,0.9-0.9
	C28.5,38.5,28.9,38.8,28.9,39.4 M28.7,50h-1.4v-8.7h1.4V50z"/>
<path fill="#FFFFFF" d="M31.8,44.1V50h-1.5v-8.7h1.2l0.2,0.9c0.3-0.8,1-0.9,1.5-1c1.6-0.1,2.9,1.4,2.9,2.9V50h-1.5v-5.9
	c0-0.8-0.6-1.4-1.4-1.4C32.5,42.7,31.8,43.3,31.8,44.1"/>
<path fill="#FFFFFF" d="M39.3,50h-1.4v-9.5c0-1.7,1.6-2.9,3.4-2.9v1.4c-1.1,0-2,0.7-2,1.5v2.7h1.8v1.4h-1.8V50z"/>
<path fill="#FFFFFF" d="M47.8,47.2c0,1.9-1.5,2.9-2.9,2.9c-1.5,0-2.9-0.9-2.9-2.9v-3.2c0-2,1.5-2.9,2.9-2.9c1.5,0,2.9,0.9,2.9,2.9
	V47.2z M46.3,44.1c0-0.9-0.7-1.4-1.5-1.4c-0.7,0-1.5,0.5-1.5,1.4v3.2c0,0.9,0.8,1.4,1.5,1.4c0.7,0,1.5-0.5,1.5-1.4V44.1z"/>
<path fill="#FFFFFF" d="M52,53.6c-0.6,0-1.6-0.3-2.3-1l0.8-1.2c0.5,0.4,1.1,0.7,1.5,0.7c0.8,0,1.4-0.6,1.4-1.4v-1.5
	c-0.3,0.7-1,0.9-1.4,0.9c-1.5,0-2.9-1-2.9-2.7v-3.5c0-1.4,1.4-2.8,2.9-2.7c0.6,0.1,1.3,0.3,1.5,1.1l0.1-1H55v9.4
	C55,52.4,53.6,53.6,52,53.6 M50.6,47.4c-0.1,0.8,0.7,1.2,1.5,1.2c0.7,0,1.4-0.5,1.4-1.2v-3.5c0-0.7-0.8-1.2-1.4-1.2
	c-0.7,0-1.4,0.5-1.4,1.2V47.4z"/>
<path fill="#FFFFFF" d="M56.4,50v-8.7h1.2l0.2,0.9c0.5-1.3,1.9-1.3,2.9-0.5L60.1,43c-0.8-0.6-2.1-0.5-2.3,0.7V50H56.4z"/>
<path fill="#FFFFFF" d="M62.7,49.1c0,0.6-0.4,0.9-0.9,0.9c-0.5,0-0.9-0.4-0.9-0.9c0-0.5,0.4-0.9,0.9-0.9
	C62.3,48.2,62.7,48.6,62.7,49.1"/>
<path fill="#FFFFFF" d="M64.7,47.2v-0.5c0-1.5,1.2-2.8,2.8-2.8c0.6,0,1.3,0.4,1.5,1l0-0.8c0-0.8-0.6-1.4-1.4-1.4
	c-0.4,0-0.9,0.2-1.4,0.7l-0.8-1.2c0.6-0.6,1.5-1,2.2-1c1.5,0,2.9,1.3,2.9,2.9V50h-1.2l-0.1-0.9c-0.2,0.8-1.1,1-1.6,1
	C66,50.1,64.7,48.8,64.7,47.2 M67.6,48.6c0.7,0,1.4-0.6,1.4-1.2v-0.9c0-0.7-0.6-1.2-1.4-1.2c-0.8,0-1.4,0.6-1.4,1.4v0.5
	C66.2,48,66.8,48.6,67.6,48.6"/>
<path fill="#FFFFFF" d="M73.3,50h-1.4v-8.7H73l0.2,0.9c0.4-0.7,1-0.9,1.6-1c0.7,0,1.7,0.3,2.1,1.4c0.4-1.1,1.3-1.4,2.2-1.4
	c1.6,0,2.8,1.3,2.8,2.9V50h-1.4v-5.9c0-2-2.8-1.9-2.8,0V50h-1.4v-5.9c0-0.8-0.6-1.4-1.4-1.4c-0.8,0-1.4,0.7-1.4,1.4V50z"/>
</svg>
