<svg width="64" height="53" viewBox="0 0 64 53" xmlns="http://www.w3.org/2000/svg"><title>icon-twitter</title><path d="M63.9 6.502c-2.366 1.023-4.86 1.726-7.544 2.046 2.685-1.6 4.795-4.22 5.754-7.29-2.558 1.536-5.37 2.622-8.312 3.198C51.432 1.898 47.98.3 44.208.3 36.983.3 31.1 6.182 31.1 13.407c0 1.023.13 2.046.32 3.005-10.87-.576-20.587-5.754-27.044-13.682-1.15 1.918-1.79 4.22-1.79 6.585 0 4.54 2.3 8.567 5.817 10.933-2.173-.064-4.155-.64-5.946-1.662v.192c0 6.33 4.54 11.636 10.55 12.85-1.087.32-2.238.448-3.453.448-.83 0-1.662-.064-2.493-.256 1.663 5.18 6.522 9.015 12.277 9.08-4.476 3.516-10.166 5.626-16.304 5.626-1.087 0-2.11-.064-3.133-.192 5.818 3.708 12.723 5.882 20.076 5.882 24.104 0 37.34-20.012 37.34-37.34 0-.574 0-1.15-.065-1.725 2.686-1.725 4.86-4.027 6.65-6.648z" fill="#444"/></svg>
