<svg width="65" height="58" viewBox="0 0 65 58" xmlns="http://www.w3.org/2000/svg"><title>icon-rapgenius</title><path d="M56.33 14.557c-.1-4.227-.886-8.356-2.36-12.288 0-.1-.1-.197-.1-.296-.097-.393-.195-.786.198-.983.393-.195.688 0 .983.296 4.13 4.424 6.882 9.437 8.258 15.335 2.26 10.126.393 19.562-5.898 27.917-5.505 7.47-13.074 11.895-22.215 13.074-10.42 1.377-19.66-1.473-27.524-8.55-.097-.1-.195-.197-.195-.197-.295-.295-.492-.59-.295-.983.295-.394.688-.394 1.08-.197 2.753.983 5.506 1.67 8.356 2.064 6.685.787 13.172-.098 19.168-3.047 11.108-5.406 17.694-14.253 19.955-26.246.392-1.965.392-3.93.59-5.897zM11.012.5h3.54c.687 0 .884.197.884.885V8.56c0 .394-.295.787-.492 1.082-2.752 3.047-4.52 6.487-5.406 10.42-.788 3.735-.493 7.372.59 11.01.097.195.195.49.195.687 0 .294 0 .687-.098.785-.197.098-.688.197-.885 0-.983-.688-1.867-1.376-2.752-2.162C1.97 25.96-.193 20.453.3 14.065.593 8.855 2.755 4.53 6.49.893 6.688.697 7.082.5 7.376.5h3.637zM30.77 5.513v-4.03c0-.786.198-.983.984-.983h5.112c.295 0 .786.197.983.49 1.965 2.46 3.34 5.31 4.03 8.357.195.884 0 1.18-.886 1.18h-1.376c-.885 0-.983.098-.983.982v5.21c0 4.226-3.047 7.47-7.274 7.863-3.734.393-7.37-2.36-8.158-6.29 0-.198-.098-.493-.098-.69-.098-.49.197-.786.688-.884 2.26-.296 4.13-1.28 5.505-3.245.884-1.278 1.376-2.654 1.376-4.325.098-1.278.098-2.457.098-3.637z" fill="#444" fill-rule="evenodd"/></svg>