<svg width="65" height="66" viewBox="0 0 65 66" xmlns="http://www.w3.org/2000/svg"><title>icon-abc</title><g fill="#444"><path d="M32.402.935C14.752.935.442 15.3.442 33.023s14.31 32.09 31.96 32.09 31.96-14.368 31.96-32.09S50.052.935 32.402.935zM16.705 42.32v-2.656c-1.344 1.53-2.877 2.55-5.134 2.537-5.34-.03-9.67-4.347-9.67-9.71 0-5.362 4.33-9.708 9.67-9.708 5.342 0 9.987 4.313 9.987 9.676l.006 9.828-4.858.034zm15.938.153c-5.34 0-9.987-4.313-9.987-9.676L22.65 16.46h4.85l.008 9.13c1.346-1.53 2.877-2.548 5.135-2.537 5.34.03 9.67 4.348 9.67 9.71 0 5.363-4.33 9.71-9.67 9.71zm20.794-.228c-5.34 0-9.67-4.347-9.67-9.71 0-5.362 4.33-9.71 9.67-9.71 4.662 0 8.567 3.418 9.482 7.825l-4.864-.016c-.745-1.768-2.497-2.963-4.53-2.963-2.71 0-4.908 2.207-4.908 4.928 0 2.722 2.198 4.928 4.908 4.928 2.033 0 3.806-1.18 4.55-2.95l4.864-.023c-.902 4.425-4.83 7.692-9.503 7.692z"/><path d="M32.518 27.575c-2.71 0-4.908 2.207-4.908 4.93 0 2.72 2.198 4.927 4.908 4.927 2.712 0 4.91-2.207 4.91-4.928 0-2.722-2.198-4.93-4.91-4.93M11.63 27.575c-2.71 0-4.908 2.207-4.908 4.93 0 2.72 2.198 4.927 4.91 4.927 2.71 0 4.907-2.207 4.907-4.928 0-2.722-2.2-4.93-4.91-4.93"/></g></svg>