<svg width="64" height="46" viewBox="0 0 64 46" xmlns="http://www.w3.org/2000/svg"><title>icon-youtube</title><path d="M62.912 8.18C62.144 4.788 59.328 2.292 56 1.908 48.064 1.012 40.064.5 32.064.5s-16 .576-23.936 1.408c-3.456.384-6.208 2.88-6.976 6.272C0 12.98 0 18.228 0 23.22c0 4.992 0 10.24 1.088 15.04.768 3.392 3.584 5.888 6.912 6.272 7.936.896 15.936 1.408 23.936 1.408s16-.576 23.936-1.408c3.328-.384 6.144-2.88 6.912-6.272C64 33.46 64 28.212 64 23.22c0-4.992 0-10.24-1.088-15.04M42.88 24.692L27.84 32.82c-1.472.832-2.752.064-2.752-1.6v-16c0-1.728 1.216-2.432 2.752-1.6l15.04 8.128c1.536.832 1.536 2.112 0 2.944" fill="#444"/></svg>
