<svg xmlns="http://www.w3.org/2000/svg" width="170" height="74" viewBox="0 0 170 74"><g fill="#444" fill-rule="evenodd"><path d="M76.07 58.52c2.142 1.65 7.157 4.404 13.335 4.404 9.114 0 14.374-5.81 14.374-12.845 0-13.825-20.247-11.745-20.247-19.88 0-2.936 2.57-4.893 6.606-4.893 3.363 0 5.75 1.345 7.522 2.385 1.285.673 2.57.918 3.487-.856l1.1-2.02c.734-1.344.55-2.506-.795-3.485C99.62 19.986 95.4 18.03 90.26 18.03c-8.256 0-14.617 4.954-14.617 12.6 0 13.518 20.246 11.805 20.246 20.062 0 2.936-2.448 4.955-6.485 4.955-4.282 0-7.4-2.202-8.808-3.18-1.53-.857-2.57-.796-3.547.55l-1.346 1.957c-1.223 1.652-.612 2.69.367 3.548zm36.21-32.846h2.692c1.652 0 2.57-.857 2.57-2.508V21.33c0-1.65-.918-2.568-2.57-2.568h-2.69c-1.652 0-2.51.917-2.51 2.57v1.834c0 1.65.858 2.508 2.51 2.508zm-2.507 33.947c0 1.713.857 2.57 2.508 2.57h2.692c1.652 0 2.508-.857 2.508-2.57V33.565c0-1.65-.856-2.57-2.508-2.57h-2.69c-1.652 0-2.51.92-2.51 2.57V59.62zm15.353-7.156c0 8.93 5.32 10.03 9.48 10.03 1.835 0 2.57-1.038 2.57-2.63v-2.078c0-1.407-.796-2.08-1.897-2.202-1.163-.123-2.447-.673-2.447-3.73V21.33c0-1.65-.857-2.568-2.508-2.568h-2.69c-1.653 0-2.51.917-2.51 2.57v31.132zm17.126 7.157c0 1.713.918 2.57 2.57 2.57h2.63c1.712 0 2.568-.857 2.568-2.57V48.55h4.037l7.28 11.866c.672 1.223 1.59 1.774 2.996 1.774h3.303c2.08 0 2.752-1.285 1.713-3.06l-9.176-14.067v-.122l7.768-10.887c1.162-1.65.49-3.058-1.59-3.058h-2.937c-1.406 0-2.324.49-3.058 1.713l-6.483 9.297h-3.854V21.33c0-1.65-.856-2.568-2.57-2.568h-2.63c-1.65 0-2.568.917-2.568 2.57v38.29z" /><path d="M57.744 47.58c.327.166.65.37.966.615 3.65 4.506-11.34 17.888-11.34 17.888s-9.265 8.34-21.56 6.907C13.517 71.557 5.46 63.08 0 56.225c2.113-5.817 6.69-11.637 10.616-14.435-3.68-5.06-5.28-10.63-4.81-17.528.706-10.42 10.307-20.8 13.597-24.056C24.288 1.23 38.206 5.2 46.27 12.51c8.062 7.307 13.013 15.785 13.013 26.796 0 2.647-.61 5.487-1.54 8.273zM11.58 43.043c1.336 2.04 3.176 4.682 3.548 5.215-2.578 2.257-4.715 4.547-6.208 7.9 1.82 2.06 6.492 7.507 16.275 9.32 5.03.934 9.78-.678 13.61-2.917 2.757.658 5.91 1.292 8.118 1.67-11.585-2.915-20.685-8.14-29.038-14.978-2.483-2.033-4.585-4.082-6.306-6.21zm10.906-33.42c-1.493 1.772-6.71 6.312-7.764 14.544-1.054 8.232 4.386 15.304 10.284 20.056 5.9 4.75 13.913 8.853 20.006 10.833 0 0 5.59-7.868 5.59-16.602s-3.607-13.64-8.96-18.517C36 14.8 26.478 10.468 22.485 9.625z"/></g></svg>
