<?xml version="1.0" encoding="utf-8"?>
<!-- Generator: Adobe Illustrator 17.1.0, SVG Export Plug-In . SVG Version: 6.00 Build 0)  -->
<!DOCTYPE svg PUBLIC "-//W3C//DTD SVG 1.1//EN" "http://www.w3.org/Graphics/SVG/1.1/DTD/svg11.dtd">
<svg version="1.1" id="Layer_1" xmlns="http://www.w3.org/2000/svg" xmlns:xlink="http://www.w3.org/1999/xlink" x="0px" y="0px"
	 viewBox="0 0 100 100" enable-background="new 0 0 100 100" xml:space="preserve">
<g>
	<path fill="#444" d="M77.3,40.8c-0.1-4.3-0.9-8.5-2.4-12.5c0-0.1-0.1-0.2-0.1-0.3c-0.1-0.4-0.2-0.8,0.2-1c0.4-0.2,0.7,0,1,0.3
		c4.2,4.5,7,9.6,8.4,15.6c2.3,10.3,0.4,19.9-6,28.4c-5.6,7.6-13.3,12.1-22.6,13.3c-10.6,1.4-20-1.5-28-8.7c-0.1-0.1-0.2-0.2-0.2-0.2
		c-0.3-0.3-0.5-0.6-0.3-1c0.3-0.4,0.7-0.4,1.1-0.2c2.8,1,5.6,1.7,8.5,2.1c6.8,0.8,13.4-0.1,19.5-3.1C67.7,68,74.4,59,76.7,46.8
		C77.1,44.8,77.1,42.8,77.3,40.8z"/>
	<path fill="#444" d="M31.2,26.5c1.2,0,2.4,0,3.6,0c0.7,0,0.9,0.2,0.9,0.9c0,2.4,0,4.8,0,7.3c0,0.4-0.3,0.8-0.5,1.1c-2.8,3.1-4.6,6.6-5.5,10.6
		c-0.8,3.8-0.5,7.5,0.6,11.2c0.1,0.2,0.2,0.5,0.2,0.7c0,0.3,0,0.7-0.1,0.8c-0.2,0.1-0.7,0.2-0.9,0c-1-0.7-1.9-1.4-2.8-2.2
		c-4.7-4.5-6.9-10.1-6.4-16.6c0.3-5.3,2.5-9.7,6.3-13.4c0.2-0.2,0.6-0.4,0.9-0.4C28.7,26.5,29.9,26.5,31.2,26.5z"/>
	<path fill="#444" d="M51.3,31.6c0-1.4,0-2.7,0-4.1c0-0.8,0.2-1,1-1c1.7,0,3.5,0,5.2,0c0.3,0,0.8,0.2,1,0.5c2,2.5,3.4,5.4,4.1,8.5
		c0.2,0.9,0,1.2-0.9,1.2c-0.5,0-0.9,0-1.4,0c-0.9,0-1,0.1-1,1c0,1.8,0,3.5,0,5.3c0,4.3-3.1,7.6-7.4,8c-3.8,0.4-7.5-2.4-8.3-6.4
		c0-0.2-0.1-0.5-0.1-0.7c-0.1-0.5,0.2-0.8,0.7-0.9c2.3-0.3,4.2-1.3,5.6-3.3c0.9-1.3,1.4-2.7,1.4-4.4C51.3,34,51.3,32.8,51.3,31.6z"
		/>
</g>
</svg>
